<svg viewBox="0 0 50 45" xmlns="http://www.w3.org/2000/svg">
  <g clip-path="url(#clip0_435_44864)">
    <path fill-rule="evenodd" clip-rule="evenodd" d="M43.9453 36.8973L49.1862 41.8841V44.2287H46.7082V42.4645H44.6493V40.5553H42.6839L42.1143 38.818C41.1651 39.4077 40.0503 39.7188 38.9119 39.7115C37.849 39.6755 36.8208 39.3468 35.9555 38.7664C35.0901 38.1859 34.4259 37.3794 34.0456 36.4472C33.6653 35.515 33.5857 34.4984 33.8167 33.5241C34.0477 32.5498 34.5791 31.6607 35.3447 30.9678C36.1103 30.2749 37.0762 29.8087 38.1222 29.6272C39.1681 29.4458 40.2478 29.5572 41.2268 29.9476C42.2057 30.3379 43.0407 30.9899 43.6275 31.8224C44.2144 32.6549 44.5273 33.631 44.5272 34.6292C44.529 35.4271 44.3237 36.2134 43.929 36.9202L43.9453 36.8973ZM38.6556 23.72C40.4739 23.7193 42.2657 24.1292 43.8797 24.9151C45.4937 25.701 46.8824 26.8398 47.9286 28.2354C48.9749 29.6309 49.6479 31.2423 49.8909 32.9333C50.1338 34.6244 49.9396 36.3454 49.3245 37.9512L47.4731 36.1909C47.907 34.3239 47.6559 32.3741 46.7606 30.6579C45.8653 28.9416 44.3784 27.5595 42.541 26.7359C40.7036 25.9122 38.6235 25.6953 36.6383 26.1203C34.653 26.5453 32.879 27.5873 31.604 29.0772L31.5633 29.1268L31.4657 29.2452L31.4168 29.3101L31.3599 29.3827L31.307 29.4514L31.2541 29.5239L31.2134 29.5774V29.5965L31.1605 29.669L31.1117 29.7416L31.0669 29.8065L31.0181 29.8829V29.9134L30.9896 29.9554L30.9408 30.0318L30.9041 30.0891L30.8553 30.1654L30.8105 30.2418L30.7739 30.3105L30.7292 30.3869V30.4251L30.7048 30.4671L30.6641 30.5435L30.6315 30.6084L30.5908 30.6886L30.5542 30.7649L30.3955 30.9291L30.3589 31.0131V31.0513V31.0933L30.3223 31.1735L30.2938 31.2422L30.2572 31.3224L30.2246 31.4064L30.1961 31.4752L30.1676 31.5592V31.6012L30.1107 31.6928L30.0659 31.8226V31.8494L30.0374 31.9334L30.013 32.0212V32.0861L29.9886 32.1739V32.2197V32.2579L29.9479 32.4107V32.4565L29.9072 32.6283V32.6512V32.7161V32.804V32.8574V32.8956L29.8828 33.0407V33.0751V33.1629V33.2545V33.2774V33.3462V33.434V33.5256V33.686V33.7777V33.8693V33.9189V34.0564V34.5528V34.8086V34.969V34.9919V35.1981V35.305V35.4005L29.9113 35.5761V35.6143V35.7174V35.8091L29.952 35.9923V36.0191L29.9764 36.1222V36.2062V36.2291L30.0049 36.3322V36.4124V36.4353L30.0374 36.5345L30.0659 36.6376L30.0985 36.7369V36.756L30.127 36.84L30.1595 36.9393L30.188 37.0119V37.0386L30.2246 37.1379L30.2531 37.2066V37.2371L30.2897 37.3326L30.3304 37.4319L30.3752 37.5273L30.4036 37.5923V37.6228L30.4484 37.7221L30.4932 37.8137L30.542 37.9092L30.5705 37.9665V38.0046L30.6193 38.0963C30.7007 38.249 30.7902 38.3979 30.8797 38.5469L30.9367 38.6385L30.9937 38.7263L31.0506 38.8141L31.1117 38.8982L31.1727 38.986L31.2012 39.028L31.2337 39.07C31.4006 39.2953 31.5755 39.5129 31.7627 39.7229L31.8359 39.8031L31.9051 39.8795C31.9987 39.9826 32.1004 40.078 32.1981 40.1773L32.2754 40.2499L32.2998 40.2766L32.3527 40.3224C34.0193 41.9058 36.2841 42.8086 38.6556 42.8349C39.2984 42.8337 39.9393 42.7697 40.568 42.644C40.8877 42.9223 41.2662 43.1343 41.6789 43.2664C41.8095 43.6935 42.045 44.0858 42.3665 44.4119C40.3559 45.0672 38.1892 45.1773 36.1149 44.7295C34.0407 44.2817 32.143 43.2942 30.6397 41.8803L30.5054 41.7467C30.074 41.329 29.6806 40.8781 29.3294 40.3988H0C0 28.2562 11.674 32.6474 16.4022 26.5494C16.9474 25.7857 16.8091 25.8545 16.1906 25.2435C15.9546 25.0121 15.7357 24.7659 15.5355 24.5065C14.2741 22.8837 13.1429 21.0471 12.0036 19.3402C11.1898 18.1947 10.7463 17.1828 10.7463 16.3695C10.7463 15.5562 11.2386 14.487 12.2192 14.2579C12.0801 12.4791 12.0516 10.6941 12.1338 8.91215C12.1771 8.45891 12.2642 8.0103 12.3942 7.57189C12.9913 5.73113 14.2966 4.16458 16.0563 3.1769C16.688 2.80786 17.3641 2.51049 18.0705 2.29102C19.3278 1.84427 18.7215 0.0534339 20.105 -2.38386e-05C23.3602 -0.0802105 28.6865 2.52395 30.7658 4.63935C32.0927 6.01222 32.8469 7.78844 32.8898 9.64147L32.7596 14.4603C33.0427 14.5257 33.3013 14.6623 33.5078 14.8554C33.7143 15.0485 33.8608 15.2908 33.9315 15.5562C34.1024 16.2091 33.9315 17.0836 33.3252 18.3627C33.3252 18.4047 33.2804 18.4047 33.2804 18.4467C31.9458 20.5163 30.5583 22.9105 29.0202 24.8197C28.2471 25.7857 27.6123 25.6139 28.2715 26.5418C28.6666 27.0478 29.1272 27.5057 29.6427 27.9049C29.9503 27.5242 30.2861 27.1644 30.6478 26.8281L30.7902 26.706C32.8979 24.7879 35.7196 23.7167 38.6556 23.72ZM38.1022 32.9872C38.3002 32.9872 38.4937 33.0423 38.6583 33.1456C38.8229 33.2488 38.9512 33.3955 39.027 33.5671C39.1028 33.7388 39.1226 33.9276 39.084 34.1098C39.0453 34.292 38.95 34.4594 38.81 34.5908C38.67 34.7221 38.4917 34.8116 38.2975 34.8479C38.1033 34.8841 37.9021 34.8655 37.7192 34.7944C37.5363 34.7233 37.3799 34.602" fill="#F4C27C"/>
  </g>
</svg>
