<svg width="309" height="84" viewBox="0 0 309 84" fill="none" xmlns="http://www.w3.org/2000/svg">
  <g filter="url(#filter0_d_421_44863)">
    <path d="M188.746 58.698C186.478 58.698 184.498 58.23 182.806 57.294C181.15 56.394 179.854 55.188 178.918 53.676C178.018 52.164 177.568 50.49 177.568 48.654C177.568 47.034 177.91 45.45 178.594 43.902C179.314 42.354 180.304 40.932 181.564 39.636C182.824 38.34 184.282 37.26 185.938 36.396C187.63 35.532 189.466 34.974 191.446 34.722C190.114 33.57 189.106 32.274 188.422 30.834C187.774 29.394 187.45 27.918 187.45 26.406C187.45 24.498 187.936 22.698 188.908 21.006C189.88 19.278 191.23 17.874 192.958 16.794C194.722 15.714 196.738 15.174 199.006 15.174C201.13 15.174 202.75 15.696 203.866 16.74C205.018 17.784 205.594 19.296 205.594 21.276C205.594 22.644 205.342 23.976 204.838 25.272C204.37 26.532 203.776 27.558 203.056 28.35C202.372 29.142 201.706 29.538 201.058 29.538C200.59 29.538 200.14 29.34 199.708 28.944C199.312 28.512 198.97 28.026 198.682 27.486C199.978 26.37 201.076 25.2 201.976 23.976C202.912 22.752 203.38 21.474 203.38 20.142C203.38 19.062 203.02 18.234 202.3 17.658C201.616 17.082 200.68 16.794 199.492 16.794C197.872 16.794 196.486 17.298 195.334 18.306C194.218 19.278 193.372 20.556 192.796 22.14C192.256 23.688 191.986 25.326 191.986 27.054C191.986 28.53 192.238 30.042 192.742 31.59C193.246 33.138 194.218 34.47 195.658 35.586C193.138 35.982 190.942 36.882 189.07 38.286C187.198 39.69 185.74 41.328 184.696 43.2C183.688 45.072 183.184 46.926 183.184 48.762C183.184 49.878 183.4 51.048 183.832 52.272C184.3 53.46 185.038 54.45 186.046 55.242C187.09 56.07 188.476 56.484 190.204 56.484C192.148 56.484 194.074 55.926 195.982 54.81C197.89 53.73 199.636 52.308 201.22 50.544C202.804 48.744 204.082 46.818 205.054 44.766L206.296 45.576C204.964 48.06 203.416 50.292 201.652 52.272C199.888 54.252 197.926 55.818 195.766 56.97C193.606 58.122 191.266 58.698 188.746 58.698ZM207.727 56.106C206.467 56.106 205.585 55.512 205.081 54.324C204.613 53.172 204.379 51.66 204.379 49.788C204.379 49.5 204.397 48.852 204.433 47.844C204.469 46.8 204.523 45.234 204.595 43.146C204.667 42.102 204.793 41.4 204.973 41.04C205.153 40.644 205.675 40.446 206.539 40.446C207.331 40.446 207.799 40.608 207.943 40.932C208.123 41.22 208.213 41.832 208.213 42.768C208.213 43.884 208.159 45.126 208.051 46.494C207.943 47.826 207.889 49.104 207.889 50.328C207.889 51.408 207.943 52.218 208.051 52.758C208.195 53.262 208.483 53.514 208.915 53.514C209.563 53.514 210.265 53.154 211.021 52.434C211.813 51.714 212.605 50.796 213.397 49.68C214.189 48.528 214.945 47.304 215.665 46.008C216.385 44.676 217.015 43.416 217.555 42.228C217.627 39.78 217.897 38.142 218.365 37.314C218.869 36.486 219.499 36.072 220.255 36.072C221.083 36.072 221.659 36.342 221.983 36.882C222.307 37.422 222.469 37.908 222.469 38.34C222.469 38.844 222.307 39.33 221.983 39.798C221.695 40.266 221.407 40.896 221.119 41.688C220.831 42.48 220.687 43.65 220.687 45.198C220.687 45.738 220.723 46.314 220.795 46.926C220.903 47.538 221.119 48.06 221.443 48.492C221.803 48.888 222.343 49.086 223.063 49.086C223.783 49.086 224.485 48.798 225.169 48.222C225.853 47.61 226.555 46.566 227.275 45.09L227.923 45.63C227.095 47.538 226.177 48.87 225.169 49.626C224.197 50.346 223.243 50.706 222.307 50.706C221.119 50.706 220.147 50.238 219.391 49.302C218.635 48.366 218.095 47.124 217.771 45.576C216.907 47.268 215.899 48.924 214.747 50.544C213.631 52.128 212.461 53.442 211.237 54.486C210.049 55.566 208.879 56.106 207.727 56.106ZM232.09 56.376C229.822 56.376 228.094 55.764 226.906 54.54C225.718 53.316 225.124 51.786 225.124 49.95C225.124 48.33 225.52 46.638 226.312 44.874C227.14 43.074 228.238 41.4 229.606 39.852C230.974 38.268 232.468 36.99 234.088 36.018C235.744 35.01 237.382 34.506 239.002 34.506C239.902 34.506 240.748 34.74 241.54 35.208C242.368 35.676 242.782 36.612 242.782 38.016C242.782 39.384 242.368 40.68 241.54 41.904C240.748 43.092 239.686 44.154 238.354 45.09C237.058 46.026 235.6 46.8 233.98 47.412C232.396 47.988 230.812 48.348 229.228 48.492C229.192 48.708 229.156 48.924 229.12 49.14C229.084 49.356 229.066 49.644 229.066 50.004C229.066 50.292 229.102 50.688 229.174 51.192C229.282 51.66 229.462 52.146 229.714 52.65C230.002 53.118 230.434 53.514 231.01 53.838C231.586 54.162 232.342 54.324 233.278 54.324C234.79 54.324 236.302 53.892 237.814 53.028C239.362 52.164 240.802 51.03 242.134 49.626C243.466 48.186 244.582 46.602 245.482 44.874L246.4 45.63C245.428 47.79 244.186 49.68 242.674 51.3C241.162 52.884 239.488 54.126 237.652 55.026C235.852 55.926 233.998 56.376 232.09 56.376ZM229.714 46.818C230.65 46.638 231.712 46.278 232.9 45.738C234.088 45.162 235.222 44.46 236.302 43.632C237.382 42.768 238.264 41.832 238.948 40.824C239.668 39.816 240.028 38.79 240.028 37.746C240.028 37.35 239.956 37.062 239.812 36.882C239.668 36.702 239.416 36.612 239.056 36.612C238.192 36.612 237.292 36.936 236.356 37.584C235.456 38.196 234.556 39.006 233.656 40.014C232.792 40.986 232.018 42.084 231.334 43.308C230.65 44.496 230.11 45.666 229.714 46.818ZM262.162 55.08C260.83 55.08 259.804 54.738 259.084 54.054C258.4 53.37 258.058 52.506 258.058 51.462C258.058 50.706 258.184 49.932 258.436 49.14C258.688 48.312 258.94 47.484 259.192 46.656C259.444 45.792 259.57 44.964 259.57 44.172C259.57 43.308 259.372 42.714 258.976 42.39C258.58 42.066 258.112 41.904 257.572 41.904C256.492 41.904 255.376 42.354 254.224 43.254C253.108 44.154 252.01 45.288 250.93 46.656C249.85 47.988 248.842 49.392 247.906 50.868C246.97 52.344 246.16 53.658 245.476 54.81C244.828 54.81 244.216 54.702 243.64 54.486C243.064 54.27 242.578 53.892 242.182 53.352C242.218 53.172 242.434 52.632 242.83 51.732C243.19 50.796 243.604 49.68 244.072 48.384C244.54 47.052 244.954 45.684 245.314 44.28C245.71 42.876 245.908 41.58 245.908 40.392C246.16 40.14 246.538 39.87 247.042 39.582C247.546 39.294 248.068 39.15 248.608 39.15C249.76 39.15 250.336 39.672 250.336 40.716C250.336 41.184 250.228 41.94 250.012 42.984C249.796 43.992 249.508 45.108 249.148 46.332C250.084 45 251.128 43.722 252.28 42.498C253.432 41.238 254.638 40.212 255.898 39.42C257.158 38.628 258.436 38.232 259.732 38.232C261.208 38.232 262.288 38.754 262.972 39.798C263.692 40.806 264.052 41.94 264.052 43.2C264.052 44.28 263.872 45.306 263.512 46.278C263.152 47.214 262.792 48.114 262.432 48.978C262.108 49.806 261.946 50.634 261.946 51.462C261.946 52.074 262.072 52.524 262.324 52.812C262.612 53.064 262.954 53.19 263.35 53.19C264.214 53.19 265.096 52.776 265.996 51.948C266.932 51.084 267.814 50.022 268.642 48.762C269.506 47.466 270.262 46.17 270.91 44.874L271.72 45.576C270.964 47.34 270.118 48.942 269.182 50.382C268.246 51.822 267.202 52.974 266.05 53.838C264.898 54.666 263.602 55.08 262.162 55.08ZM274.458 56.484C272.874 56.484 271.614 56.016 270.678 55.08C269.778 54.18 269.328 52.794 269.328 50.922C269.328 49.41 269.616 47.538 270.192 45.306C270.768 43.074 271.488 40.77 272.352 38.394C272.064 38.322 271.74 38.268 271.38 38.232C271.056 38.16 270.75 38.052 270.462 37.908V36.45C270.93 36.522 271.344 36.576 271.704 36.612C272.1 36.648 272.514 36.684 272.946 36.72C273.702 34.812 274.512 32.958 275.376 31.158C276.276 29.358 277.158 27.756 278.022 26.352C278.886 24.948 279.714 23.832 280.506 23.004C281.298 22.176 281.982 21.762 282.558 21.762C282.918 21.762 283.242 21.888 283.53 22.14C283.818 22.392 283.962 22.752 283.962 23.22C283.962 23.904 283.584 24.93 282.828 26.298C282.108 27.63 281.19 29.214 280.074 31.05C278.994 32.85 277.95 34.794 276.942 36.882C277.23 36.882 277.518 36.882 277.806 36.882C278.13 36.882 278.436 36.882 278.724 36.882C280.164 36.882 281.532 36.864 282.828 36.828C284.124 36.756 285.438 36.648 286.77 36.504V38.016C284.79 38.232 282.972 38.394 281.316 38.502C279.696 38.61 278.184 38.664 276.78 38.664C276.672 38.664 276.546 38.664 276.402 38.664C276.294 38.664 276.186 38.664 276.078 38.664C275.286 40.5 274.602 42.372 274.026 44.28C273.486 46.188 273.216 48.042 273.216 49.842C273.216 51.354 273.45 52.434 273.918 53.082C274.386 53.694 275.142 54 276.186 54C277.986 54 279.822 53.172 281.694 51.516C283.566 49.86 285.186 47.628 286.554 44.82L287.31 45.36C286.41 47.448 285.276 49.338 283.908 51.03C282.54 52.722 281.046 54.054 279.426 55.026C277.842 55.998 276.186 56.484 274.458 56.484ZM291.258 56.754C289.494 56.754 288.072 56.376 286.992 55.62C285.948 54.9 285.21 53.982 284.778 52.866C284.31 51.75 284.076 50.616 284.076 49.464C284.076 48.42 284.22 47.61 284.508 47.034C284.796 46.458 285.156 46.026 285.588 45.738C286.02 45.45 286.416 45.234 286.776 45.09C287.172 44.946 287.442 44.802 287.586 44.658C288.558 43.614 289.512 42.462 290.448 41.202C291.384 39.942 292.194 38.574 292.878 37.098V36.504C292.878 35.1 293.112 34.11 293.58 33.534C294.048 32.958 294.588 32.67 295.2 32.67C295.596 32.67 295.884 32.778 296.064 32.994C296.244 33.174 296.334 33.39 296.334 33.642C296.334 33.822 296.28 34.074 296.172 34.398C296.1 34.722 296.064 35.154 296.064 35.694C296.064 36.81 296.316 38.07 296.82 39.474C297.324 40.842 297.828 42.3 298.332 43.848C298.836 45.396 299.088 46.98 299.088 48.6C299.088 49.068 299.07 49.5 299.034 49.896C298.998 50.256 298.926 50.616 298.818 50.976C300.006 50.724 301.14 50.13 302.22 49.194C303.3 48.222 304.344 46.782 305.352 44.874L305.946 45.36C305.262 47.412 304.254 49.032 302.922 50.22C301.626 51.372 300.132 52.074 298.44 52.326C297.864 53.838 296.928 54.954 295.632 55.674C294.336 56.394 292.878 56.754 291.258 56.754ZM291.042 54.54C291.654 54.54 292.284 54.36 292.932 54C293.58 53.676 294.102 53.1 294.498 52.272C292.986 51.948 291.636 51.372 290.448 50.544C289.296 49.68 288.396 48.798 287.748 47.898C287.172 48.006 286.884 48.546 286.884 49.518C286.884 50.742 287.226 51.894 287.91 52.974C288.63 54.018 289.674 54.54 291.042 54.54ZM294.876 50.868C294.948 50.58 294.984 50.256 294.984 49.896C295.02 49.536 295.038 49.212 295.038 48.924C295.002 47.268 294.786 45.648 294.39 44.064C293.994 42.444 293.616 40.824 293.256 39.204C292.536 40.428 291.726 41.688 290.826 42.984C289.962 44.244 289.152 45.27 288.396 46.062C288.936 47.106 289.764 48.078 290.88 48.978C292.032 49.878 293.364 50.508 294.876 50.868Z" fill="#584534"/>
  </g>
  <g filter="url(#filter1_d_421_44863)">
    <path d="M13.042 61.698C10.99 61.698 9.046 61.338 7.21 60.618C5.374 59.898 3.88 58.8 2.728 57.324C1.612 55.884 1.054 54.066 1.054 51.87C1.054 49.962 1.45 48.468 2.242 47.388C3.07 46.308 4.096 45.552 5.32 45.12C6.544 44.688 7.732 44.472 8.884 44.472C7.768 45.624 6.922 46.848 6.346 48.144C5.806 49.44 5.536 50.682 5.536 51.87C5.536 53.13 5.842 54.318 6.454 55.434C7.066 56.514 8.002 57.396 9.262 58.08C10.522 58.764 12.088 59.106 13.96 59.106C15.58 59.106 17.146 58.818 18.658 58.242C20.206 57.702 21.466 56.874 22.438 55.758C23.446 54.642 23.95 53.256 23.95 51.6C23.95 50.088 23.536 48.792 22.708 47.712C21.88 46.632 20.818 45.678 19.522 44.85C18.226 43.986 16.84 43.176 15.364 42.42C13.924 41.628 12.556 40.782 11.26 39.882C9.964 38.982 8.902 37.956 8.074 36.804C7.246 35.616 6.832 34.194 6.832 32.538C6.832 31.062 7.192 29.496 7.912 27.84C8.668 26.148 9.712 24.564 11.044 23.088C12.412 21.612 14.05 20.424 15.958 19.524C17.902 18.588 20.062 18.12 22.438 18.12C24.778 18.12 26.416 18.642 27.352 19.686C28.324 20.73 28.81 22.062 28.81 23.682C28.81 25.014 28.576 26.436 28.108 27.948C27.676 29.46 27.118 30.9 26.434 32.268C25.786 33.6 25.156 34.752 24.544 35.724C23.788 35.544 23.23 35.238 22.87 34.806C22.546 34.374 22.384 33.816 22.384 33.132C22.384 32.376 22.528 31.53 22.816 30.594C23.14 29.622 23.5 28.632 23.896 27.624C24.328 26.58 24.706 25.59 25.03 24.654C25.354 23.682 25.516 22.818 25.516 22.062C25.516 21.378 25.318 20.856 24.922 20.496C24.526 20.1 23.734 19.902 22.546 19.902C20.854 19.902 19.288 20.298 17.848 21.09C16.408 21.846 15.148 22.818 14.068 24.006C13.024 25.194 12.196 26.436 11.584 27.732C11.008 29.028 10.72 30.216 10.72 31.296C10.72 32.592 11.116 33.708 11.908 34.644C12.736 35.58 13.78 36.426 15.04 37.182C16.336 37.938 17.704 38.712 19.144 39.504C20.584 40.26 21.934 41.106 23.194 42.042C24.49 42.978 25.534 44.094 26.326 45.39C27.154 46.65 27.568 48.216 27.568 50.088C27.568 51.96 27.154 53.616 26.326 55.056C25.498 56.496 24.364 57.702 22.924 58.674C21.52 59.646 19.954 60.384 18.226 60.888C16.498 61.428 14.77 61.698 13.042 61.698ZM33.4899 59.052C32.7339 59.052 32.1759 58.44 31.8159 57.216C31.4559 56.028 31.2759 54.66 31.2759 53.112C31.2759 51.42 31.5639 49.404 32.1399 47.064C32.7159 44.724 33.4719 42.258 34.4079 39.666C35.3439 37.038 36.3879 34.482 37.5399 31.998C38.7279 29.478 39.9339 27.21 41.1579 25.194C42.4179 23.142 43.6059 21.504 44.7219 20.28C45.8379 19.056 46.8099 18.444 47.6379 18.444C48.3579 18.444 48.8979 18.858 49.2579 19.686C49.6179 20.478 49.7979 21.288 49.7979 22.116C49.7979 23.124 49.5639 24.348 49.0959 25.788C48.6639 27.192 48.0519 28.704 47.2599 30.324C46.4679 31.944 45.5319 33.546 44.4519 35.13C43.4079 36.714 42.2739 38.154 41.0499 39.45C39.8259 40.746 38.5479 41.79 37.2159 42.582C36.7839 43.734 36.4239 44.886 36.1359 46.038C35.8479 47.154 35.6319 48.234 35.4879 49.278C35.3799 50.322 35.3259 51.312 35.3259 52.248C35.3259 52.5 35.3259 52.752 35.3259 53.004C35.3619 53.22 35.3979 53.418 35.4339 53.598C35.6859 52.95 36.0099 52.104 36.4059 51.06C36.8379 49.98 37.3419 48.846 37.9179 47.658C38.5299 46.47 39.2319 45.336 40.0239 44.256C40.8519 43.176 41.7879 42.312 42.8319 41.664C43.8759 40.98 45.0279 40.638 46.2879 40.638C47.4399 40.638 48.3399 40.908 48.9879 41.448C49.6719 41.952 50.1399 42.6 50.3919 43.392C50.6799 44.184 50.8239 44.994 50.8239 45.822C50.8239 46.938 50.6259 48.018 50.2299 49.062C49.8699 50.07 49.4919 51.042 49.0959 51.978C48.7359 52.878 48.5559 53.742 48.5559 54.57C48.5559 55.218 48.6999 55.686 48.9879 55.974C49.2759 56.262 49.6359 56.406 50.0679 56.406C50.8599 56.406 51.7779 56.01 52.8219 55.218C53.9019 54.426 54.9459 53.382 55.9539 52.086C56.9979 50.754 57.8979 49.296 58.6539 47.712L59.4639 48.522C58.6719 50.322 57.7179 51.96 56.6019 53.436C55.4859 54.912 54.2619 56.1 52.9299 57C51.6339 57.864 50.2479 58.296 48.7719 58.296C47.4399 58.296 46.4319 57.936 45.7479 57.216C45.0639 56.532 44.7219 55.668 44.7219 54.624C44.7219 53.868 44.8479 53.04 45.0999 52.14C45.3879 51.204 45.6579 50.268 45.9099 49.332C46.1619 48.36 46.2879 47.478 46.2879 46.686C46.2879 45.822 46.0899 45.21 45.6939 44.85C45.3339 44.49 44.8839 44.31 44.3439 44.31C43.4439 44.31 42.6339 44.67 41.9139 45.39C41.1939 46.11 40.5279 47.028 39.9159 48.144C39.3399 49.26 38.7999 50.448 38.2959 51.708C37.7919 52.932 37.2879 54.12 36.7839 55.272C36.3159 56.388 35.8119 57.288 35.2719 57.972C34.7319 58.692 34.1379 59.052 33.4899 59.052ZM38.2419 39.558C39.1779 38.73 40.0959 37.74 40.9959 36.588C41.8959 35.4 42.7239 34.158 43.4799 32.862C44.2719 31.566 44.9559 30.306 45.5319 29.082C46.1079 27.858 46.5579 26.76 46.8819 25.788C47.2419 24.816 47.4399 24.06 47.4759 23.52C47.4759 23.448 47.4579 23.394 47.4219 23.358C47.4219 23.322 47.4039 23.304 47.3679 23.304C47.1519 23.304 46.6839 23.772 45.9639 24.708C45.2439 25.608 44.3979 26.832 43.4259 28.38C42.4899 29.928 41.5539 31.674 40.6179 33.618C39.6819 35.562 38.8899 37.542 38.2419 39.558ZM60.235 59.538C59.083 59.538 58.093 59.142 57.265 58.35C56.401 57.594 55.969 56.442 55.969 54.894C55.969 53.598 56.257 52.212 56.833 50.736C57.409 49.26 58.201 47.802 59.209 46.362C60.217 44.922 61.369 43.608 62.665 42.42C63.961 41.232 65.329 40.278 66.769 39.558C68.245 38.838 69.703 38.478 71.143 38.478C72.655 38.478 73.915 38.874 74.923 39.666C75.967 40.422 76.489 41.43 76.489 42.69C76.489 43.662 76.183 44.346 75.571 44.742C74.959 45.138 74.203 45.264 73.303 45.12C73.375 44.832 73.429 44.526 73.465 44.202C73.537 43.842 73.573 43.5 73.573 43.176C73.573 42.42 73.411 41.754 73.087 41.178C72.763 40.602 72.133 40.314 71.197 40.314C70.189 40.314 69.163 40.656 68.119 41.34C67.075 42.024 66.067 42.924 65.095 44.04C64.123 45.156 63.259 46.38 62.503 47.712C61.747 49.044 61.153 50.358 60.721 51.654C60.289 52.95 60.073 54.102 60.073 55.11C60.073 56.334 60.523 56.946 61.423 56.946C62.251 56.946 63.151 56.55 64.123 55.758C65.131 54.966 66.139 53.958 67.147 52.734C68.191 51.51 69.181 50.268 70.117 49.008C71.053 47.712 71.863 46.578 72.547 45.606C72.691 45.426 72.817 45.336 72.925 45.336C73.105 45.372 73.393 45.462 73.789 45.606C74.185 45.714 74.545 45.876 74.869 46.092C75.193 46.308 75.355 46.596 75.355 46.956C75.355 47.316 75.193 47.784 74.869 48.36C74.545 48.9 74.185 49.512 73.789 50.196C73.393 50.88 73.033 51.564 72.709 52.248C72.385 52.932 72.223 53.598 72.223 54.246C72.223 54.714 72.349 55.182 72.601 55.65C72.889 56.082 73.339 56.298 73.951 56.298C74.851 56.298 76.075 55.65 77.623 54.354C79.207 53.022 80.809 50.862 82.429 47.874L83.293 48.738C82.465 50.682 81.439 52.392 80.215 53.868C79.027 55.344 77.767 56.496 76.435 57.324C75.103 58.188 73.771 58.62 72.439 58.62C70.999 58.62 69.937 58.17 69.253 57.27C68.569 56.406 68.191 55.452 68.119 54.408C68.119 54.3 68.119 54.192 68.119 54.084C68.155 53.94 68.173 53.814 68.173 53.706C66.697 55.542 65.347 56.964 64.123 57.972C62.899 59.016 61.603 59.538 60.235 59.538ZM90.983 58.404C89.687 58.404 88.643 58.062 87.851 57.378C87.059 56.694 86.663 55.776 86.663 54.624C86.663 53.616 86.915 52.536 87.419 51.384C87.923 50.196 88.427 49.044 88.931 47.928C89.471 46.776 89.741 45.75 89.741 44.85C89.741 43.914 89.435 43.176 88.823 42.636C88.247 42.06 87.617 41.574 86.933 41.178C86.105 43.23 85.205 45.192 84.233 47.064C83.297 48.936 82.523 50.376 81.911 51.384L81.209 50.034C81.713 49.098 82.379 47.766 83.207 46.038C84.035 44.274 84.827 42.294 85.583 40.098C85.223 39.738 85.043 39.27 85.043 38.694C85.043 37.722 85.331 36.84 85.907 36.048C86.519 35.256 87.059 34.86 87.527 34.86C87.923 34.86 88.193 35.094 88.337 35.562C88.517 35.994 88.607 36.3 88.607 36.48C88.607 36.66 88.517 37.002 88.337 37.506C88.157 37.974 88.049 38.298 88.013 38.478C88.013 38.91 88.301 39.324 88.877 39.72C89.489 40.08 90.155 40.53 90.875 41.07C91.631 41.574 92.297 42.204 92.873 42.96C93.449 43.68 93.737 44.616 93.737 45.768C93.737 46.848 93.503 47.928 93.035 49.008C92.567 50.088 92.099 51.114 91.631 52.086C91.163 53.058 90.929 53.886 90.929 54.57C90.929 55.146 91.073 55.524 91.361 55.704C91.649 55.884 91.991 55.974 92.387 55.974C93.251 55.974 94.151 55.704 95.087 55.164C96.023 54.624 96.923 53.94 97.787 53.112C98.687 52.284 99.479 51.42 100.163 50.52C100.847 49.584 101.369 48.738 101.729 47.982L102.809 48.792C102.125 50.34 101.153 51.852 99.893 53.328C98.633 54.804 97.229 56.028 95.681 57C94.133 57.936 92.567 58.404 90.983 58.404ZM106.665 59.376C104.397 59.376 102.669 58.764 101.481 57.54C100.292 56.316 99.6985 54.786 99.6985 52.95C99.6985 51.33 100.094 49.638 100.887 47.874C101.715 46.074 102.813 44.4 104.181 42.852C105.549 41.268 107.043 39.99 108.663 39.018C110.319 38.01 111.957 37.506 113.577 37.506C114.477 37.506 115.323 37.74 116.115 38.208C116.943 38.676 117.357 39.612 117.357 41.016C117.357 42.384 116.943 43.68 116.115 44.904C115.323 46.092 114.261 47.154 112.929 48.09C111.633 49.026 110.175 49.8 108.555 50.412C106.971 50.988 105.387 51.348 103.803 51.492C103.767 51.708 103.731 51.924 103.695 52.14C103.659 52.356 103.641 52.644 103.641 53.004C103.641 53.292 103.677 53.688 103.749 54.192C103.857 54.66 104.037 55.146 104.289 55.65C104.577 56.118 105.009 56.514 105.585 56.838C106.161 57.162 106.917 57.324 107.853 57.324C109.365 57.324 110.877 56.892 112.389 56.028C113.937 55.164 115.377 54.03 116.709 52.626C118.041 51.186 119.157 49.602 120.057 47.874L120.975 48.63C120.003 50.79 118.761 52.68 117.249 54.3C115.737 55.884 114.063 57.126 112.227 58.026C110.427 58.926 108.573 59.376 106.665 59.376ZM104.289 49.818C105.225 49.638 106.287 49.278 107.475 48.738C108.663 48.162 109.797 47.46 110.877 46.632C111.957 45.768 112.839 44.832 113.523 43.824C114.243 42.816 114.603 41.79 114.603 40.746C114.603 40.35 114.531 40.062 114.387 39.882C114.243 39.702 113.991 39.612 113.631 39.612C112.767 39.612 111.867 39.936 110.931 40.584C110.031 41.196 109.131 42.006 108.231 43.014C107.367 43.986 106.593 45.084 105.909 46.308C105.225 47.496 104.685 48.666 104.289 49.818Z" fill="#584534"/>
  </g>
  <g filter="url(#filter2_d_421_44863)">
    <path d="M115.514 54.698C115.694 54.158 116.234 52.88 117.134 50.864C118.07 48.884 119.294 46.256 120.806 42.98C122.318 39.668 124.082 35.816 126.098 31.424C128.15 26.996 130.382 22.118 132.794 16.79C132.902 16.538 133.01 16.232 133.118 15.872C133.226 15.512 133.28 15.188 133.28 14.9C133.28 14.504 133.172 14.198 132.956 13.982C132.74 13.73 132.29 13.604 131.606 13.604C130.094 13.604 128.852 14.09 127.88 15.062C126.944 15.998 126.242 17.168 125.774 18.572C125.306 19.976 125.072 21.344 125.072 22.676C125.072 23.036 125.072 23.396 125.072 23.756C125.108 24.116 125.162 24.53 125.234 24.998C124.442 24.998 123.794 24.746 123.29 24.242C122.786 23.702 122.39 23.072 122.102 22.352C121.85 21.596 121.724 20.894 121.724 20.246C121.724 19.058 122.048 17.924 122.696 16.844C123.38 15.764 124.244 14.792 125.288 13.928C126.368 13.064 127.556 12.38 128.852 11.876C130.148 11.372 131.426 11.12 132.686 11.12C133.946 11.12 135.026 11.48 135.926 12.2C136.826 12.92 137.51 14.216 137.978 16.088C138.446 17.924 138.68 20.588 138.68 24.08C138.68 26.384 138.59 28.76 138.41 31.208C138.266 33.62 138.104 35.942 137.924 38.174C137.744 40.37 137.636 42.296 137.6 43.952C138.284 41.792 139.148 39.506 140.192 37.094C141.272 34.682 142.424 32.288 143.648 29.912C144.908 27.5 146.132 25.232 147.32 23.108C148.544 20.984 149.642 19.148 150.614 17.6C151.586 16.016 152.324 14.846 152.828 14.09C153.332 13.334 153.764 12.758 154.124 12.362C154.52 11.966 155.042 11.768 155.69 11.768C156.194 11.768 156.914 11.948 157.85 12.308C157.562 12.992 157.202 14.054 156.77 15.494C156.338 16.898 155.87 18.554 155.366 20.462C154.826 22.658 154.268 25.088 153.692 27.752C153.152 30.38 152.648 33.044 152.18 35.744C151.748 38.444 151.388 41.018 151.1 43.466C150.848 45.878 150.722 47.966 150.722 49.73C150.722 50.63 150.758 51.332 150.83 51.836C150.902 52.34 151.01 52.772 151.154 53.132C151.334 53.528 151.514 54.05 151.694 54.698C150.254 54.698 149.156 54.464 148.4 53.996C147.644 53.564 147.14 52.862 146.888 51.89C146.636 50.918 146.51 49.622 146.51 48.002C146.51 43.898 146.996 39.56 147.968 34.988C148.94 30.416 150.074 25.682 151.37 20.786C150.362 22.19 149.3 23.9 148.184 25.916C147.104 27.896 146.024 30.02 144.944 32.288C143.864 34.52 142.838 36.752 141.866 38.984C140.894 41.18 140.03 43.232 139.274 45.14C138.554 47.012 137.996 48.578 137.6 49.838C137.312 49.946 137.114 50.018 137.006 50.054C136.898 50.09 136.754 50.108 136.574 50.108C135.386 50.108 134.63 49.406 134.306 48.002C133.982 46.598 133.82 44.654 133.82 42.17C133.82 40.766 133.838 39.182 133.874 37.418C133.946 35.654 134.018 33.854 134.09 32.018C134.198 30.182 134.27 28.382 134.306 26.618C134.378 24.854 134.414 23.216 134.414 21.704C134.414 21.128 134.396 20.588 134.36 20.084C134.36 19.544 134.36 19.04 134.36 18.572C131.552 25.088 129.194 30.65 127.286 35.258C125.378 39.83 123.758 43.556 122.426 46.436C121.094 49.28 119.888 51.368 118.808 52.7C117.764 54.032 116.666 54.698 115.514 54.698ZM159.722 65.12C158.822 65.12 157.994 64.85 157.238 64.31C156.518 63.77 156.158 62.942 156.158 61.826C156.158 60.674 156.482 59.63 157.13 58.694C157.778 57.794 158.624 56.966 159.668 56.21C160.712 55.454 161.846 54.752 163.07 54.104C164.33 53.456 165.572 52.826 166.796 52.214C167.228 51.098 167.696 49.73 168.2 48.11C168.704 46.49 169.154 44.888 169.55 43.304C168.434 44.96 167.228 46.418 165.932 47.678C164.672 48.902 163.268 49.514 161.72 49.514C161.072 49.514 160.388 49.388 159.668 49.136C158.984 48.848 158.408 48.38 157.94 47.732C157.472 47.048 157.238 46.166 157.238 45.086C157.238 44.114 157.4 42.962 157.724 41.63C158.084 40.298 158.516 39.002 159.02 37.742C159.56 36.482 160.1 35.438 160.64 34.61C161.216 33.746 161.72 33.314 162.152 33.314C162.332 33.314 162.62 33.386 163.016 33.53C163.412 33.674 163.79 33.872 164.15 34.124C164.546 34.376 164.78 34.646 164.852 34.934C164.528 35.366 164.168 35.996 163.772 36.824C163.376 37.652 162.998 38.57 162.638 39.578C162.278 40.586 161.972 41.576 161.72 42.548C161.504 43.52 161.396 44.348 161.396 45.032C161.396 45.608 161.504 46.094 161.72 46.49C161.972 46.886 162.422 47.084 163.07 47.084C163.826 47.084 164.618 46.76 165.446 46.112C166.31 45.464 167.156 44.636 167.984 43.628C168.812 42.584 169.55 41.522 170.198 40.442C170.306 40.118 170.396 39.722 170.468 39.254C170.54 38.75 170.648 38.228 170.792 37.688C170.936 37.112 171.224 36.554 171.656 36.014C172.124 35.438 172.772 35.15 173.6 35.15C173.852 35.15 174.086 35.168 174.302 35.204C174.554 35.24 174.842 35.294 175.166 35.366C175.166 35.906 174.968 36.968 174.572 38.552C174.212 40.1 173.726 41.918 173.114 44.006C172.502 46.058 171.8 48.128 171.008 50.216C172.592 49.604 174.194 48.578 175.814 47.138C177.434 45.662 178.748 43.646 179.756 41.09L180.62 41.738C180.08 43.538 179.252 45.104 178.136 46.436C177.056 47.732 175.832 48.848 174.464 49.784C173.096 50.684 171.728 51.44 170.36 52.052C169.388 54.392 168.344 56.552 167.228 58.532C166.112 60.548 164.924 62.15 163.664 63.338C162.44 64.526 161.126 65.12 159.722 65.12ZM159.29 63.23C159.938 63.23 160.874 62.51 162.098 61.07C163.358 59.63 164.636 57.362 165.932 54.266C164.672 54.914 163.448 55.616 162.26 56.372C161.072 57.164 160.082 57.992 159.29 58.856C158.498 59.72 158.102 60.656 158.102 61.664C158.102 61.988 158.192 62.33 158.372 62.69C158.552 63.05 158.858 63.23 159.29 63.23Z" fill="#F2B057"/>
  </g>
  <defs>
    <filter id="filter0_d_421_44863" x="176.568" y="15.174" width="132.378" height="47.524" filterUnits="userSpaceOnUse" color-interpolation-filters="sRGB">
      <feFlood flood-opacity="0" result="BackgroundImageFix"/>
      <feColorMatrix in="SourceAlpha" type="matrix" values="0 0 0 0 0 0 0 0 0 0 0 0 0 0 0 0 0 0 127 0" result="hardAlpha"/>
      <feOffset dx="1" dy="2"/>
      <feGaussianBlur stdDeviation="1"/>
      <feComposite in2="hardAlpha" operator="out"/>
      <feColorMatrix type="matrix" values="0 0 0 0 0.639216 0 0 0 0 0.231373 0 0 0 0 0.12549 0 0 0 1 0"/>
      <feBlend mode="normal" in2="BackgroundImageFix" result="effect1_dropShadow_421_44863"/>
      <feBlend mode="normal" in="SourceGraphic" in2="effect1_dropShadow_421_44863" result="shape"/>
    </filter>
    <filter id="filter1_d_421_44863" x="0.0539856" y="18.12" width="123.921" height="47.578" filterUnits="userSpaceOnUse" color-interpolation-filters="sRGB">
      <feFlood flood-opacity="0" result="BackgroundImageFix"/>
      <feColorMatrix in="SourceAlpha" type="matrix" values="0 0 0 0 0 0 0 0 0 0 0 0 0 0 0 0 0 0 127 0" result="hardAlpha"/>
      <feOffset dx="1" dy="2"/>
      <feGaussianBlur stdDeviation="1"/>
      <feComposite in2="hardAlpha" operator="out"/>
      <feColorMatrix type="matrix" values="0 0 0 0 0.639216 0 0 0 0 0.231373 0 0 0 0 0.12549 0 0 0 1 0"/>
      <feBlend mode="normal" in2="BackgroundImageFix" result="effect1_dropShadow_421_44863"/>
      <feBlend mode="normal" in="SourceGraphic" in2="effect1_dropShadow_421_44863" result="shape"/>
    </filter>
    <filter id="filter2_d_421_44863" x="113.514" y="11.12" width="69.1063" height="60" filterUnits="userSpaceOnUse" color-interpolation-filters="sRGB">
      <feFlood flood-opacity="0" result="BackgroundImageFix"/>
      <feColorMatrix in="SourceAlpha" type="matrix" values="0 0 0 0 0 0 0 0 0 0 0 0 0 0 0 0 0 0 127 0" result="hardAlpha"/>
      <feOffset dy="4"/>
      <feGaussianBlur stdDeviation="1"/>
      <feComposite in2="hardAlpha" operator="out"/>
      <feColorMatrix type="matrix" values="0 0 0 0 0.345098 0 0 0 0 0.270588 0 0 0 0 0.203922 0 0 0 1 0"/>
      <feBlend mode="normal" in2="BackgroundImageFix" result="effect1_dropShadow_421_44863"/>
      <feBlend mode="normal" in="SourceGraphic" in2="effect1_dropShadow_421_44863" result="shape"/>
    </filter>
  </defs>
</svg>
