<svg id="Layer_1" data-name="Layer 1" xmlns="http://www.w3.org/2000/svg" viewBox="0 0 122.88 123.05">
  <title>info</title><path d="M60.88,0a59.43,59.43,0,0,1,43,17,63.19,63.19,0,0,1,15.82,65.08A61,61,0,0,1,109,101.52a59,59,0,0,1-5,5.4A58.28,58.28,0,0,1,65.59,123,59.1,59.1,0,0,1,26,109.5c-1.13-.92-2.22-1.89-3.29-2.89L6.55,112.26a4.93,4.93,0,0,1-6.08-6.75L9,87.5A62.89,62.89,0,0,1,5.15,76.81a63.69,63.69,0,0,1-2-13.72A62.48,62.48,0,0,1,7.25,38.43,61,61,0,0,1,20.68,17.52,58.89,58.89,0,0,1,39.12,4.82,57.76,57.76,0,0,1,60.88,0ZM59.25,36.15a7.78,7.78,0,0,1,.57-3,7.6,7.6,0,0,1,1.71-2.49A8,8,0,0,1,64,29a7.57,7.57,0,0,1,2.9-.56,7.48,7.48,0,0,1,2.89.56,7.77,7.77,0,0,1,2.44,1.69,7.6,7.6,0,0,1,1.68,2.5,7.88,7.88,0,0,1,.55,3,7.71,7.71,0,0,1-.55,2.93,7.82,7.82,0,0,1-1.67,2.51,7.59,7.59,0,0,1-2.45,1.72,7.27,7.27,0,0,1-2.89.57,7.5,7.5,0,0,1-3-.57,7.25,7.25,0,0,1-2.47-1.7,7.54,7.54,0,0,1-2.23-5.46Zm2.92,45.24L62,82c-.15.63-.36,1.51.13,2.06a.91.91,0,0,0,.34.22,1.35,1.35,0,0,0,.52.09,2.59,2.59,0,0,0,1.37-.61,13,13,0,0,0,2-1.94,35.09,35.09,0,0,0,2.43-3.13q1.26-1.78,2.64-4.1a.36.36,0,0,1,.48-.12l3.1,2.31a.35.35,0,0,1,.09.47,54.27,54.27,0,0,1-4.33,6.5,29.76,29.76,0,0,1-4.48,4.64h0a17.37,17.37,0,0,1-4.65,2.77,13.49,13.49,0,0,1-4.91.93,13.32,13.32,0,0,1-3.86-.51A7.59,7.59,0,0,1,50,90a6.71,6.71,0,0,1-1.76-2.58A9.38,9.38,0,0,1,47.68,84a18.3,18.3,0,0,1,.72-4.58c.17-.64.38-1.35.63-2.14l5.46-16.86.45-1.59c.11-.44.21-.83.28-1.16a8.23,8.23,0,0,0,.15-.86,7.06,7.06,0,0,0,.05-.73,2.59,2.59,0,0,0-.19-1v0a2.12,2.12,0,0,0-.54-.76,2.4,2.4,0,0,0-.89-.52,3.69,3.69,0,0,0-1.2-.18H48.2a.35.35,0,0,1-.35-.35l0-.12L49,48.88a.34.34,0,0,1,.33-.25l22.41-.71a.36.36,0,0,1,.36.34l0,.11-9.94,33ZM97,24.07A49.61,49.61,0,0,0,61.11,9.86a48.05,48.05,0,0,0-18,4A48.88,48.88,0,0,0,27.7,24.43,51.22,51.22,0,0,0,16.43,41.94,52.88,52.88,0,0,0,13,62.75a53.74,53.74,0,0,0,1.68,11.59,52.72,52.72,0,0,0,4,10.63,4.93,4.93,0,0,1,.21,4.62l-4.49,9.49,7.8-2.72a4.92,4.92,0,0,1,5.36,1.19,51.13,51.13,0,0,0,4.68,4.35,49.35,49.35,0,0,0,33,11.28,48.43,48.43,0,0,0,31.87-13.4,49.81,49.81,0,0,0,4.2-4.51,51.54,51.54,0,0,0,9-16.3A53.38,53.38,0,0,0,97,24.07Z" fill="#f5f5f5"/></svg>
