<svg viewBox="0 0 50 45" fill="none" xmlns="http://www.w3.org/2000/svg">
  <path fill-rule="evenodd" clip-rule="evenodd" d="M34.2561 28.8281H46.2472C48.3091 28.8281 50 30.2271 50 31.9409V41.8909C50 43.6011 48.3135 45 46.2472 45H34.2561C32.1943 45 30.5033 43.6011 30.5033 41.8909V31.9409C30.5077 30.2307 32.1943 28.8281 34.2561 28.8281ZM26.8124 41.4734C27.5894 41.4734 28.2163 41.9934 28.2163 42.6379C28.2163 43.2825 27.5894 43.8025 26.8124 43.8025H3.26269C2.36203 43.8025 1.54967 43.4985 0.953642 43.0078C0.366446 42.5134 0 41.8396 0 41.0925V2.7063C0 1.95923 0.366446 1.2854 0.958057 0.791016C1.54967 0.303955 2.36645 0 3.26269 0H43.3554C44.2561 0 45.0684 0.307617 45.66 0.794678C46.2517 1.2854 46.6181 1.96289 46.6181 2.70996V25.1331C46.6181 25.7776 45.9912 26.2976 45.2141 26.2976C44.4415 26.2976 43.8102 25.7776 43.8102 25.1331V2.7063C43.8102 2.60376 43.7572 2.50854 43.6733 2.43896C43.5894 2.36938 43.4746 2.32544 43.3554 2.32544H3.26269C3.13907 2.32544 3.02428 2.36938 2.93598 2.4353C2.85651 2.50854 2.80353 2.6001 2.80353 2.7063V41.0852C2.80353 41.1877 2.85651 41.283 2.9404 41.3525C3.02428 41.4221 3.13907 41.4661 3.26711 41.4661L26.8124 41.4734ZM14.5872 20.6433C14.3223 20.2625 14.5121 19.1711 15.0861 18.7866C16.7196 17.9956 18.9713 18.241 20.543 17.3291C20.6358 17.2156 20.7329 17.0508 20.83 16.8713C20.9713 16.6003 21.1038 16.3037 21.1876 16.1023C20.8389 15.7617 20.5386 15.3772 20.2517 14.9963L19.3068 13.7476C18.9625 13.3191 18.7815 12.9272 18.7726 12.6086C18.7682 12.4585 18.7991 12.323 18.8653 12.1985C18.936 12.0703 19.0419 11.9678 19.1921 11.8835C19.2627 11.8433 19.3377 11.8103 19.4216 11.7883C19.3598 11.1108 19.3377 10.2576 19.3775 9.54346C19.3951 9.375 19.4393 9.20288 19.4923 9.03442C19.7351 8.31665 20.34 7.7417 21.0905 7.34619C21.5055 7.12646 21.9558 6.96167 22.4283 6.85181C22.7285 6.77856 22.1722 5.98389 22.4812 5.95825C23.9823 5.83008 26.415 6.96899 27.4614 7.91016C27.9868 8.38257 28.3179 9.00513 28.3885 9.83276L28.3311 11.8689C28.5916 11.9348 28.7594 12.074 28.83 12.2974C28.9051 12.5464 28.8256 12.8943 28.5695 13.3704C28.5651 13.3777 28.5607 13.3887 28.5519 13.396L27.4746 14.8682C27.0773 15.4102 26.6755 15.9521 26.1545 16.3806C26.2031 16.4392 26.2517 16.4941 26.3002 16.5527C26.5121 16.8127 26.7285 17.0728 27.0066 17.3035C27.0155 17.3108 27.0243 17.3181 27.0287 17.3291C28.2693 18.0579 31.2892 18.2336 32.4503 18.7683L32.4989 18.7903C33.0949 19.1711 33.2804 20.2625 33.0066 20.6433H14.5872ZM13.638 33.988C12.8653 33.988 12.2296 33.4607 12.2296 32.8088C12.2296 32.1606 12.8565 31.6296 13.638 31.6296H23.1832C23.9603 31.6296 24.5916 32.157 24.5916 32.8088C24.5916 33.4607 23.9647 33.988 23.1832 33.988H13.638ZM13.638 26.6162C12.8653 26.6162 12.234 26.0962 12.234 25.4517C12.234 24.8108 12.8609 24.2871 13.638 24.2871H32.5651C33.3422 24.2871 33.9691 24.8071 33.9691 25.4517C33.9691 26.0962 33.3422 26.6162 32.5651 26.6162H13.638ZM39.0331 33.2593C39.0331 32.699 39.5806 32.2449 40.2561 32.2449C40.9316 32.2449 41.479 32.699 41.479 33.2593V35.8997H44.6623C45.3378 35.8997 45.8852 36.3538 45.8852 36.9141C45.8852 37.4744 45.3378 37.9285 44.6623 37.9285H41.479V40.5688C41.479 41.1291 40.9316 41.5833 40.2561 41.5833C39.5806 41.5833 39.0331 41.1291 39.0331 40.5688V37.9285H35.8455C35.17 37.9285 34.6225 37.4744 34.6225 36.9141C34.6225 36.3538 35.17 35.8997 35.8455 35.8997H39.0287L39.0331 33.2593Z" fill="#584534"/>
</svg>
